<svg version="1.1" id="Layer_1" xmlns="http://www.w3.org/2000/svg" xmlns:xlink="http://www.w3.org/1999/xlink" x="0px" y="0px"
	 width="100%" viewBox="0 0 368 173" enable-background="new 0 0 368 173" xml:space="preserve">
<path fill="#FEFEFE" opacity="1.000000" stroke="none" 
	d="
M225.000000,174.000000 
	C150.000015,174.000000 75.500015,174.000000 1.000020,174.000000 
	C1.000013,116.333351 1.000013,58.666698 1.000007,1.000036 
	C123.666634,1.000024 246.333267,1.000024 368.999939,1.000012 
	C368.999939,58.666630 368.999939,116.333260 368.999969,173.999939 
	C321.166656,174.000000 273.333344,174.000000 225.000000,174.000000 
M64.992348,56.499359 
	C64.992348,62.263573 64.992348,68.027786 64.992348,73.624901 
	C67.973183,73.624901 70.354698,73.624901 72.993500,73.624901 
	C72.993500,68.628799 72.993500,64.019897 72.993500,59.206345 
	C77.832062,59.206345 82.391808,59.206345 87.368134,59.206345 
	C87.368134,64.203781 87.368134,68.955956 87.368134,73.753265 
	C90.194275,73.753265 92.600197,73.753265 95.002434,73.753265 
	C95.002434,61.738808 95.002434,49.988876 95.002434,38.310154 
	C92.349640,38.310154 89.944321,38.310154 87.078827,38.310154 
	C87.078827,43.012882 87.078827,47.405521 87.078827,51.772064 
	C82.161850,51.772064 77.728279,51.772064 72.848976,51.772064 
	C72.848976,47.173904 72.848976,42.766148 72.848976,38.290894 
	C70.007401,38.290894 67.623894,38.290894 65.311325,38.290894 
	C65.164490,38.905392 65.026947,39.215309 65.025711,39.525768 
	C65.004601,44.850685 65.000320,50.175671 64.992348,56.499359 
M140.577560,47.812542 
	C139.418381,44.552643 138.259201,41.292740 137.149948,38.173229 
	C127.917244,37.692768 127.915443,37.692135 125.048378,45.828892 
	C124.607086,47.081261 124.202911,48.346710 123.761253,49.598946 
	C120.938210,57.603008 118.109497,65.605064 115.232254,73.750427 
	C118.516632,73.750427 121.121941,73.750427 123.592606,73.750427 
	C124.530128,71.010010 125.372887,68.546608 126.170830,66.214188 
	C130.523270,66.214188 134.478470,66.214188 138.487030,66.214188 
	C139.403320,68.855659 140.264404,71.337975 141.114136,73.787552 
	C143.869812,73.787552 146.466370,73.787552 149.500046,73.787552 
	C146.549774,65.151382 143.713379,56.848557 140.577560,47.812542 
M183.970993,49.271042 
	C182.519150,54.192348 181.067322,59.113659 179.615479,64.034966 
	C179.281219,63.938465 178.946945,63.841961 178.612671,63.745461 
	C176.093857,55.188953 173.575058,46.632446 171.113068,38.268921 
	C168.157928,38.268921 165.586441,38.268921 162.666214,38.268921 
	C166.695282,50.395267 170.601868,62.152996 174.485291,73.840958 
	C177.679916,73.840958 180.475189,73.840958 183.488892,73.840958 
	C187.459824,61.982410 191.399216,50.218082 195.412262,38.233768 
	C192.415512,38.233768 189.824738,38.233768 187.244263,38.233768 
	C186.173355,41.808910 185.172501,45.150150 183.970993,49.271042 
M43.691307,60.337532 
	C41.659595,55.280899 36.725170,54.133671 32.578457,51.792595 
	C30.878492,50.832859 29.902405,48.590931 28.597023,46.932278 
	C30.575760,45.980564 32.510056,44.379009 34.544365,44.239887 
	C37.149597,44.061722 39.835369,45.061165 42.511269,45.557781 
	C42.511269,43.290470 42.511269,41.338692 42.511269,38.033962 
	C37.209084,38.369190 32.125370,38.252140 27.222681,39.137520 
	C23.206888,39.862732 20.633551,42.877159 20.157333,47.173542 
	C19.685446,51.430878 21.493877,54.668888 25.095678,56.777695 
	C27.372057,58.110481 30.101118,58.745102 32.203354,60.275143 
	C33.719826,61.378845 34.538292,63.441593 35.668079,65.076591 
	C33.864952,66.024330 31.992113,67.864136 30.273550,67.729828 
	C26.932585,67.468742 23.678185,66.099922 20.418461,65.198425 
	C19.682329,72.645355 20.413713,73.547104 27.980234,73.978149 
	C29.802837,74.081985 31.661297,74.134048 33.464310,73.904259 
	C41.296669,72.905991 44.395660,69.053543 43.691307,60.337532 
M163.397949,105.223816 
	C162.249863,105.382759 161.094742,105.502487 159.954834,105.707001 
	C152.512222,107.042236 148.280670,111.052391 146.691177,118.636963 
	C145.046829,126.483261 146.192245,133.697800 152.981430,138.831879 
	C159.780441,143.973404 170.225082,142.288635 175.328598,135.572189 
	C183.926743,124.256729 178.023468,108.149170 163.397949,105.223816 
M90.885399,130.160660 
	C91.186577,128.523849 91.608719,126.898781 91.769043,125.248283 
	C92.708908,115.572739 87.828323,107.656601 79.885063,105.865456 
	C67.625282,103.100967 58.473011,111.396713 58.936451,124.853577 
	C59.240059,133.669189 64.078224,139.751373 72.005341,141.282822 
	C80.576622,142.938736 86.886475,139.419495 90.885399,130.160660 
M222.212067,73.843132 
	C222.212067,62.027740 222.212067,50.212349 222.212067,38.263702 
	C220.031708,38.263702 217.654938,38.263702 215.214874,38.263702 
	C215.214874,50.245140 215.214874,61.940125 215.214874,74.007339 
	C217.388657,74.007339 219.338348,74.007339 222.212067,73.843132 
M252.559052,105.922623 
	C250.822617,105.922623 249.086182,105.922623 247.797623,105.922623 
	C247.797623,118.174362 247.797623,129.604095 247.797623,141.033844 
	C248.365463,141.063705 248.933289,141.093552 249.501129,141.123413 
	C249.501129,135.941956 249.501129,130.760483 249.501129,125.701836 
	C256.972290,125.183456 258.139862,125.807335 260.728973,131.254318 
	C261.943298,133.809036 262.929565,136.481094 264.279816,138.957901 
	C264.812592,139.935196 266.055084,140.525574 266.974426,141.292130 
	C267.272186,141.013474 267.569916,140.734818 267.867645,140.456146 
	C265.308014,135.168167 262.748383,129.880173 260.201324,124.594063 
	C265.831116,121.549942 268.035614,117.591507 266.819244,112.710838 
	C265.675018,108.119637 262.059906,105.952507 255.494278,105.923111 
	C254.827698,105.920120 254.161102,105.922653 252.559052,105.922623 
M214.277222,130.111786 
	C218.541794,129.083969 220.118057,131.457169 221.157089,135.114304 
	C221.770203,137.272339 223.210022,139.195511 224.278046,141.224319 
	C224.808304,140.957642 225.338562,140.690964 225.868805,140.424286 
	C221.492157,128.813385 217.115494,117.202477 212.738846,105.591576 
	C212.086594,105.599731 211.434341,105.607880 210.782104,105.616035 
	C206.374527,117.283829 201.966949,128.951630 197.559357,140.619431 
	C198.183624,140.907074 198.807877,141.194733 199.432129,141.482376 
	C201.082840,137.776352 202.733536,134.070312 204.496704,130.111771 
	C207.376221,130.111771 210.363678,130.111771 214.277222,130.111786 
M331.932465,109.494614 
	C329.257324,115.477974 330.040588,118.578316 335.312775,122.261276 
	C338.027100,124.157410 341.294342,125.490227 343.468750,127.853287 
	C344.996216,129.513275 346.061829,132.721939 345.545410,134.793198 
	C345.110962,136.535797 342.220764,138.534760 340.196320,138.813660 
	C336.964142,139.258942 333.548401,138.371689 330.210266,138.047836 
	C330.044067,138.506485 329.877869,138.965134 329.711670,139.423782 
	C332.045715,140.164368 334.332397,141.193909 336.723572,141.586166 
	C341.910736,142.437134 346.638275,139.866135 348.171692,135.709839 
	C349.803375,131.287125 348.310455,127.592232 343.482849,124.347809 
	C340.870300,122.592033 337.723816,121.360992 335.686310,119.108109 
	C334.164978,117.425941 333.056641,114.236458 333.581604,112.182739 
	C334.031921,110.421143 336.880127,108.683846 338.992676,108.088730 
	C341.485748,107.386421 344.328064,107.923935 346.929657,107.923935 
	C344.649536,103.954063 337.734283,104.341278 331.932465,109.494614 
M25.060108,108.830940 
	C29.656199,108.410286 34.252289,107.989632 38.848377,107.568970 
	C38.801952,107.123299 38.755524,106.677628 38.709095,106.231956 
	C33.337254,106.231956 27.965414,106.231956 22.749222,106.231956 
	C22.749222,117.958641 22.749222,129.495941 22.749222,141.033234 
	C23.300610,141.065826 23.851999,141.098419 24.403387,141.131012 
	C24.403387,135.803131 24.403387,130.475266 24.403387,125.124626 
	C29.547993,124.856041 33.663971,124.641159 37.779949,124.426285 
	C37.745979,123.745605 37.712009,123.064926 37.678040,122.384247 
	C33.527554,122.384247 29.377064,122.384247 24.893509,122.384247 
	C24.893509,117.679108 24.893509,113.724655 25.060108,108.830940 
M299.987091,127.490036 
	C299.987091,121.093018 299.987091,114.695999 299.987091,108.393364 
	C303.870300,108.158943 306.971069,107.971756 310.071838,107.784576 
	C310.034485,107.354149 309.997131,106.923714 309.959778,106.493286 
	C302.406403,106.493286 294.853058,106.493286 287.299713,106.493286 
	C287.271790,106.924751 287.243866,107.356209 287.215942,107.787674 
	C290.502350,108.008362 293.788727,108.229050 297.292938,108.464363 
	C297.547180,119.465981 297.138092,130.271179 297.525482,141.027832 
	C298.346008,141.009644 299.166565,140.991470 299.987091,140.973282 
	C299.987091,136.810364 299.987091,132.647446 299.987091,127.490036 
M117.991409,111.711052 
	C117.991409,121.445427 117.991409,131.179810 117.991409,140.914185 
	C118.672623,140.920700 119.353844,140.927200 120.035057,140.933701 
	C120.035057,130.048981 120.035057,119.164253 120.035057,108.358177 
	C124.082993,108.090103 127.261925,107.879578 130.440857,107.669052 
	C130.400467,107.318245 130.360092,106.967430 130.319702,106.616623 
	C122.879463,106.616623 115.439217,106.616623 107.998978,106.616623 
	C107.978027,107.102242 107.957077,107.587852 107.936127,108.073471 
	C110.317207,108.073471 112.745728,107.797310 115.058563,108.194588 
	C116.150101,108.382080 117.019821,109.860970 117.991409,111.711052 
z"/>
<path fill="#131313" opacity="1.000000" stroke="none" 
	d="
M64.992348,56.000000 
	C65.000320,50.175671 65.004601,44.850685 65.025711,39.525768 
	C65.026947,39.215309 65.164490,38.905392 65.311325,38.290894 
	C67.623894,38.290894 70.007401,38.290894 72.848976,38.290894 
	C72.848976,42.766148 72.848976,47.173904 72.848976,51.772064 
	C77.728279,51.772064 82.161850,51.772064 87.078827,51.772064 
	C87.078827,47.405521 87.078827,43.012882 87.078827,38.310154 
	C89.944321,38.310154 92.349640,38.310154 95.002434,38.310154 
	C95.002434,49.988876 95.002434,61.738808 95.002434,73.753265 
	C92.600197,73.753265 90.194275,73.753265 87.368134,73.753265 
	C87.368134,68.955956 87.368134,64.203781 87.368134,59.206345 
	C82.391808,59.206345 77.832062,59.206345 72.993500,59.206345 
	C72.993500,64.019897 72.993500,68.628799 72.993500,73.624901 
	C70.354698,73.624901 67.973183,73.624901 64.992348,73.624901 
	C64.992348,68.027786 64.992348,62.263573 64.992348,56.000000 
z"/>
<path fill="#121212" opacity="1.000000" stroke="none" 
	d="
M140.727264,48.179138 
	C143.713379,56.848557 146.549774,65.151382 149.500046,73.787552 
	C146.466370,73.787552 143.869812,73.787552 141.114136,73.787552 
	C140.264404,71.337975 139.403320,68.855659 138.487030,66.214188 
	C134.478470,66.214188 130.523270,66.214188 126.170830,66.214188 
	C125.372887,68.546608 124.530128,71.010010 123.592606,73.750427 
	C121.121941,73.750427 118.516632,73.750427 115.232254,73.750427 
	C118.109497,65.605064 120.938210,57.603008 123.761253,49.598946 
	C124.202911,48.346710 124.607086,47.081261 125.048378,45.828892 
	C127.915443,37.692135 127.917244,37.692768 137.149948,38.173229 
	C138.259201,41.292740 139.418381,44.552643 140.727264,48.179138 
M136.271606,59.716331 
	C135.140503,55.268875 134.009384,50.821415 132.878281,46.373959 
	C132.575531,46.348717 132.272781,46.323475 131.970032,46.298233 
	C130.596176,50.734512 129.222321,55.170792 127.728264,59.995201 
	C130.762054,59.995201 133.076843,59.995201 136.271606,59.716331 
z"/>
<path fill="#141414" opacity="1.000000" stroke="none" 
	d="
M184.071320,48.881214 
	C185.172501,45.150150 186.173355,41.808910 187.244263,38.233768 
	C189.824738,38.233768 192.415512,38.233768 195.412262,38.233768 
	C191.399216,50.218082 187.459824,61.982410 183.488892,73.840958 
	C180.475189,73.840958 177.679916,73.840958 174.485291,73.840958 
	C170.601868,62.152996 166.695282,50.395267 162.666214,38.268921 
	C165.586441,38.268921 168.157928,38.268921 171.113068,38.268921 
	C173.575058,46.632446 176.093857,55.188953 178.612671,63.745461 
	C178.946945,63.841961 179.281219,63.938465 179.615479,64.034966 
	C181.067322,59.113659 182.519150,54.192348 184.071320,48.881214 
z"/>
<path fill="#131313" opacity="1.000000" stroke="none" 
	d="
M43.799194,60.727890 
	C44.395660,69.053543 41.296669,72.905991 33.464310,73.904259 
	C31.661297,74.134048 29.802837,74.081985 27.980234,73.978149 
	C20.413713,73.547104 19.682329,72.645355 20.418461,65.198425 
	C23.678185,66.099922 26.932585,67.468742 30.273550,67.729828 
	C31.992113,67.864136 33.864952,66.024330 35.668079,65.076591 
	C34.538292,63.441593 33.719826,61.378845 32.203354,60.275143 
	C30.101118,58.745102 27.372057,58.110481 25.095678,56.777695 
	C21.493877,54.668888 19.685446,51.430878 20.157333,47.173542 
	C20.633551,42.877159 23.206888,39.862732 27.222681,39.137520 
	C32.125370,38.252140 37.209084,38.369190 42.511269,38.033962 
	C42.511269,41.338692 42.511269,43.290470 42.511269,45.557781 
	C39.835369,45.061165 37.149597,44.061722 34.544365,44.239887 
	C32.510056,44.379009 30.575760,45.980564 28.597023,46.932278 
	C29.902405,48.590931 30.878492,50.832859 32.578457,51.792595 
	C36.725170,54.133671 41.659595,55.280899 43.799194,60.727890 
z"/>
<path fill="#2B2B2B" opacity="1.000000" stroke="none" 
	d="
M163.810120,105.245789 
	C178.023468,108.149170 183.926743,124.256729 175.328598,135.572189 
	C170.225082,142.288635 159.780441,143.973404 152.981430,138.831879 
	C146.192245,133.697800 145.046829,126.483261 146.691177,118.636963 
	C148.280670,111.052391 152.512222,107.042236 159.954834,105.707001 
	C161.094742,105.502487 162.249863,105.382759 163.810120,105.245789 
M175.982224,119.126381 
	C174.025177,111.860191 170.876236,108.633774 165.088089,107.964211 
	C153.119141,106.579659 145.423752,117.655983 149.690277,130.126953 
	C151.905594,136.602249 156.724060,139.655914 163.892975,139.127762 
	C170.104019,138.670181 174.726913,134.678116 175.781403,128.412476 
	C176.244003,125.663811 176.007721,122.797531 175.982224,119.126381 
z"/>
<path fill="#2A2A2A" opacity="1.000000" stroke="none" 
	d="
M90.745644,130.534637 
	C86.886475,139.419495 80.576622,142.938736 72.005341,141.282822 
	C64.078224,139.751373 59.240059,133.669189 58.936451,124.853577 
	C58.473011,111.396713 67.625282,103.100967 79.885063,105.865456 
	C87.828323,107.656601 92.708908,115.572739 91.769043,125.248283 
	C91.608719,126.898781 91.186577,128.523849 90.745644,130.534637 
M61.741264,126.192680 
	C63.118984,134.617188 67.159691,138.833481 74.195656,139.188293 
	C81.669167,139.565170 87.148239,135.997864 88.410713,128.918915 
	C89.114456,124.972870 88.886765,120.628609 88.026901,116.693680 
	C86.914886,111.604897 83.249695,108.582092 77.846771,107.931641 
	C72.082802,107.237709 66.933586,108.597267 64.277855,113.935326 
	C62.587299,117.333374 62.433792,121.496117 61.741264,126.192680 
z"/>
<path fill="#151515" opacity="1.000000" stroke="none" 
	d="
M221.750046,73.925232 
	C219.338348,74.007339 217.388657,74.007339 215.214874,74.007339 
	C215.214874,61.940125 215.214874,50.245140 215.214874,38.263702 
	C217.654938,38.263702 220.031708,38.263702 222.212067,38.263702 
	C222.212067,50.212349 222.212067,62.027740 221.750046,73.925232 
z"/>
<path fill="#313131" opacity="1.000000" stroke="none" 
	d="
M253.026779,105.922623 
	C254.161102,105.922653 254.827698,105.920120 255.494278,105.923111 
	C262.059906,105.952507 265.675018,108.119637 266.819244,112.710838 
	C268.035614,117.591507 265.831116,121.549942 260.195007,124.593124 
	C262.748383,129.880173 265.308014,135.168167 267.867645,140.456146 
	C267.569916,140.734818 267.272186,141.013474 266.974426,141.292130 
	C266.055084,140.525574 264.812592,139.935196 264.279816,138.957901 
	C262.929565,136.481094 261.943298,133.809036 260.728973,131.254318 
	C258.139862,125.807335 256.972290,125.183456 249.501129,125.701836 
	C249.501129,130.760483 249.501129,135.941956 249.501129,141.123413 
	C248.933289,141.093552 248.365463,141.063705 247.797623,141.033844 
	C247.797623,129.604095 247.797623,118.174362 247.797623,105.922623 
	C249.086182,105.922623 250.822617,105.922623 253.026779,105.922623 
M250.656128,108.210884 
	C250.270950,112.993774 249.885757,117.776672 249.469757,122.942245 
	C252.720612,122.942245 255.175720,123.134056 257.589172,122.898750 
	C261.528564,122.514671 263.894989,120.229202 264.308655,116.241600 
	C264.726929,112.209030 262.951447,109.441299 258.932831,108.638084 
	C256.542572,108.160339 254.032181,108.283875 250.656128,108.210884 
z"/>
<path fill="#242424" opacity="1.000000" stroke="none" 
	d="
M213.814178,130.111786 
	C210.363678,130.111771 207.376221,130.111771 204.496704,130.111771 
	C202.733536,134.070312 201.082840,137.776352 199.432129,141.482376 
	C198.807877,141.194733 198.183624,140.907074 197.559357,140.619431 
	C201.966949,128.951630 206.374527,117.283829 210.782104,105.616035 
	C211.434341,105.607880 212.086594,105.599731 212.738846,105.591576 
	C217.115494,117.202477 221.492157,128.813385 225.868805,140.424286 
	C225.338562,140.690964 224.808304,140.957642 224.278046,141.224319 
	C223.210022,139.195511 221.770203,137.272339 221.157089,135.114304 
	C220.118057,131.457169 218.541794,129.083969 213.814178,130.111786 
M212.035339,110.856674 
	C211.906845,110.752403 211.790680,110.620888 211.644867,110.554977 
	C211.568283,110.520378 211.366943,110.573700 211.345047,110.632874 
	C209.259735,116.266350 207.186340,121.904243 205.082993,127.621109 
	C209.788193,127.621109 213.820892,127.621109 218.339615,127.621109 
	C216.259598,121.962158 214.333099,116.720886 212.035339,110.856674 
z"/>
<path fill="#292929" opacity="1.000000" stroke="none" 
	d="
M332.164948,109.201843 
	C337.734283,104.341278 344.649536,103.954063 346.929657,107.923935 
	C344.328064,107.923935 341.485748,107.386421 338.992676,108.088730 
	C336.880127,108.683846 334.031921,110.421143 333.581604,112.182739 
	C333.056641,114.236458 334.164978,117.425941 335.686310,119.108109 
	C337.723816,121.360992 340.870300,122.592033 343.482849,124.347809 
	C348.310455,127.592232 349.803375,131.287125 348.171692,135.709839 
	C346.638275,139.866135 341.910736,142.437134 336.723572,141.586166 
	C334.332397,141.193909 332.045715,140.164368 329.711670,139.423782 
	C329.877869,138.965134 330.044067,138.506485 330.210266,138.047836 
	C333.548401,138.371689 336.964142,139.258942 340.196320,138.813660 
	C342.220764,138.534760 345.110962,136.535797 345.545410,134.793198 
	C346.061829,132.721939 344.996216,129.513275 343.468750,127.853287 
	C341.294342,125.490227 338.027100,124.157410 335.312775,122.261276 
	C330.040588,118.578316 329.257324,115.477974 332.164948,109.201843 
z"/>
<path fill="#3C3C3C" opacity="1.000000" stroke="none" 
	d="
M24.976809,109.300568 
	C24.893509,113.724655 24.893509,117.679108 24.893509,122.384247 
	C29.377064,122.384247 33.527554,122.384247 37.678040,122.384247 
	C37.712009,123.064926 37.745979,123.745605 37.779949,124.426285 
	C33.663971,124.641159 29.547993,124.856041 24.403387,125.124626 
	C24.403387,130.475266 24.403387,135.803131 24.403387,141.131012 
	C23.851999,141.098419 23.300610,141.065826 22.749222,141.033234 
	C22.749222,129.495941 22.749222,117.958641 22.749222,106.231956 
	C27.965414,106.231956 33.337254,106.231956 38.709095,106.231956 
	C38.755524,106.677628 38.801952,107.123299 38.848377,107.568970 
	C34.252289,107.989632 29.656199,108.410286 24.976809,109.300568 
z"/>
<path fill="#373737" opacity="1.000000" stroke="none" 
	d="
M299.987091,127.987282 
	C299.987091,132.647446 299.987091,136.810364 299.987091,140.973282 
	C299.166565,140.991470 298.346008,141.009644 297.525482,141.027832 
	C297.138092,130.271179 297.547180,119.465981 297.292938,108.464363 
	C293.788727,108.229050 290.502350,108.008362 287.215942,107.787674 
	C287.243866,107.356209 287.271790,106.924751 287.299713,106.493286 
	C294.853058,106.493286 302.406403,106.493286 309.959778,106.493286 
	C309.997131,106.923714 310.034485,107.354149 310.071838,107.784576 
	C306.971069,107.971756 303.870300,108.158943 299.987091,108.393364 
	C299.987091,114.695999 299.987091,121.093018 299.987091,127.987282 
z"/>
<path fill="#131313" opacity="1.000000" stroke="none" 
	d="
M117.990730,111.232880 
	C117.019821,109.860970 116.150101,108.382080 115.058563,108.194588 
	C112.745728,107.797310 110.317207,108.073471 107.936127,108.073471 
	C107.957077,107.587852 107.978027,107.102242 107.998978,106.616623 
	C115.439217,106.616623 122.879463,106.616623 130.319702,106.616623 
	C130.360092,106.967430 130.400467,107.318245 130.440857,107.669052 
	C127.261925,107.879578 124.082993,108.090103 120.035057,108.358177 
	C120.035057,119.164253 120.035057,130.048981 120.035057,140.933701 
	C119.353844,140.927200 118.672623,140.920700 117.991409,140.914185 
	C117.991409,131.179810 117.991409,121.445427 117.990730,111.232880 
z"/>
<path fill="#EDEDED" opacity="1.000000" stroke="none" 
	d="
M135.831619,59.855766 
	C133.076843,59.995201 130.762054,59.995201 127.728264,59.995201 
	C129.222321,55.170792 130.596176,50.734512 131.970032,46.298233 
	C132.272781,46.323475 132.575531,46.348717 132.878281,46.373959 
	C134.009384,50.821415 135.140503,55.268875 135.831619,59.855766 
z"/>
<path fill="#FCFCFC" opacity="1.000000" stroke="none" 
	d="
M176.035507,119.555519 
	C176.007721,122.797531 176.244003,125.663811 175.781403,128.412476 
	C174.726913,134.678116 170.104019,138.670181 163.892975,139.127762 
	C156.724060,139.655914 151.905594,136.602249 149.690277,130.126953 
	C145.423752,117.655983 153.119141,106.579659 165.088089,107.964211 
	C170.876236,108.633774 174.025177,111.860191 176.035507,119.555519 
z"/>
<path fill="#FCFCFC" opacity="1.000000" stroke="none" 
	d="
M61.666168,125.754326 
	C62.433792,121.496117 62.587299,117.333374 64.277855,113.935326 
	C66.933586,108.597267 72.082802,107.237709 77.846771,107.931641 
	C83.249695,108.582092 86.914886,111.604897 88.026901,116.693680 
	C88.886765,120.628609 89.114456,124.972870 88.410713,128.918915 
	C87.148239,135.997864 81.669167,139.565170 74.195656,139.188293 
	C67.159691,138.833481 63.118984,134.617188 61.666168,125.754326 
z"/>
<path fill="#F9F9F9" opacity="1.000000" stroke="none" 
	d="
M251.115967,108.173981 
	C254.032181,108.283875 256.542572,108.160339 258.932831,108.638084 
	C262.951447,109.441299 264.726929,112.209030 264.308655,116.241600 
	C263.894989,120.229202 261.528564,122.514671 257.589172,122.898750 
	C255.175720,123.134056 252.720612,122.942245 249.469757,122.942245 
	C249.885757,117.776672 250.270950,112.993774 251.115967,108.173981 
z"/>
<path fill="#F2F2F2" opacity="1.000000" stroke="none" 
	d="
M212.220978,111.168152 
	C214.333099,116.720886 216.259598,121.962158 218.339615,127.621109 
	C213.820892,127.621109 209.788193,127.621109 205.082993,127.621109 
	C207.186340,121.904243 209.259735,116.266350 211.345047,110.632874 
	C211.366943,110.573700 211.568283,110.520378 211.644867,110.554977 
	C211.790680,110.620888 211.906845,110.752403 212.220978,111.168152 
z"/>
</svg>