<?xml version="1.0" standalone="no"?>
<!DOCTYPE svg PUBLIC "-//W3C//DTD SVG 20010904//EN"
 "http://www.w3.org/TR/2001/REC-SVG-20010904/DTD/svg10.dtd">
<svg version="1.0" xmlns="http://www.w3.org/2000/svg"
 width="1440.000000pt" height="1440.000000pt" viewBox="0 0 1440.000000 1440.000000"
 preserveAspectRatio="xMidYMid meet">

<g transform="translate(0.000000,1440.000000) scale(0.100000,-0.100000)"
fill="#000000" stroke="none">
<path d="M7840 8716 c-19 -18 -53 -54 -75 -81 -22 -26 -45 -53 -50 -59 -18
-20 -75 -112 -75 -122 0 -5 -15 -33 -34 -61 -64 -97 -143 -228 -246 -408 -56
-99 -113 -196 -125 -215 -13 -19 -37 -62 -55 -95 -34 -62 -136 -217 -195 -295
-19 -25 -55 -82 -81 -127 -26 -44 -57 -94 -70 -110 -13 -15 -27 -32 -32 -38
-4 -5 -17 -28 -28 -50 -37 -70 -61 -110 -118 -198 -31 -47 -56 -91 -56 -97 0
-6 -27 -56 -61 -111 -33 -56 -67 -117 -74 -137 -7 -21 -37 -91 -65 -157 -29
-66 -56 -136 -60 -155 -33 -147 -32 -141 -3 -173 25 -26 33 -28 74 -24 51 6
146 54 254 128 79 54 92 65 228 191 129 119 192 168 328 253 62 39 152 97 201
130 50 33 110 71 134 85 40 22 45 23 60 8 15 -14 14 -19 -4 -61 -11 -25 -23
-60 -27 -78 -3 -19 -12 -50 -19 -69 -7 -19 -19 -53 -26 -75 -13 -42 -29 -81
-76 -180 -22 -46 -29 -78 -32 -140 -4 -77 -3 -81 28 -120 41 -52 62 -59 130
-45 84 18 162 60 329 180 71 51 71 51 69 -23 -3 -58 -1 -67 22 -86 19 -16 39
-20 89 -21 72 0 107 9 196 50 33 15 85 35 115 45 30 9 81 32 113 51 32 19 62
34 66 34 4 0 39 22 78 49 62 44 148 94 313 184 30 16 74 42 97 58 23 16 45 29
49 29 4 0 15 6 23 14 23 20 170 80 178 72 7 -7 -13 -48 -37 -74 -9 -10 -34
-42 -55 -72 -98 -139 -99 -141 -103 -209 -4 -58 -2 -66 19 -82 17 -13 41 -19
81 -19 65 0 142 30 352 136 71 36 152 75 180 85 28 11 83 35 121 54 106 50
145 65 171 65 26 0 29 -9 14 -54 -30 -99 -40 -162 -40 -257 0 -183 22 -216
137 -206 54 5 74 13 112 41 25 20 49 39 53 43 4 4 22 26 40 48 18 21 69 76
113 120 44 45 123 128 175 185 52 57 120 122 150 145 30 22 123 108 206 190
83 83 180 177 215 210 35 33 82 80 104 105 23 25 62 64 87 87 26 23 50 48 55
56 4 8 33 43 65 78 149 169 238 286 238 315 0 29 -29 46 -53 33 -9 -6 -43 -42
-74 -82 -60 -75 -180 -205 -294 -317 -157 -156 -429 -413 -483 -457 -32 -26
-81 -70 -110 -96 -28 -27 -107 -99 -175 -160 -69 -62 -159 -146 -201 -187
-102 -99 -198 -166 -219 -153 -19 13 -16 105 5 166 8 22 14 52 14 66 0 15 7
36 15 47 8 10 15 26 15 34 0 8 7 28 15 44 8 15 15 33 15 39 0 6 15 43 34 82
18 38 41 90 51 115 10 25 23 59 30 75 50 119 56 181 24 224 -28 38 -64 41
-105 9 -73 -56 -92 -103 -129 -314 -23 -135 -30 -146 -118 -177 -41 -15 -81
-27 -89 -27 -7 0 -24 -6 -38 -13 -14 -7 -56 -23 -95 -36 -38 -13 -75 -27 -80
-31 -11 -9 -53 -25 -155 -59 -124 -41 -155 -49 -207 -56 -92 -12 -84 15 53
180 37 44 70 82 74 85 8 6 30 68 30 86 0 24 -53 63 -99 74 -82 19 -183 -14
-286 -95 -68 -53 -167 -115 -194 -122 -14 -3 -51 -22 -81 -42 -30 -19 -75 -46
-100 -58 -25 -13 -85 -49 -135 -81 -49 -31 -110 -65 -135 -76 -25 -10 -52 -22
-60 -27 -115 -66 -310 -138 -310 -115 0 8 83 151 90 156 4 3 18 23 32 45 14
22 42 56 62 75 19 19 36 40 36 46 0 6 10 19 23 30 12 11 65 60 117 108 161
149 242 202 445 291 17 8 78 15 136 18 82 3 114 8 140 23 43 25 73 76 65 109
-11 41 -46 57 -133 57 -78 0 -82 -1 -213 -59 -118 -52 -270 -135 -301 -165 -8
-7 -61 -56 -119 -108 -58 -52 -136 -124 -175 -160 -66 -61 -188 -172 -281
-254 -23 -20 -44 -36 -47 -36 -3 0 -41 -25 -83 -56 -43 -30 -101 -66 -128 -80
-28 -14 -71 -36 -95 -50 -51 -28 -64 -29 -81 -9 -16 19 -2 105 30 185 12 30
25 66 30 80 5 14 18 50 30 80 12 30 26 71 32 90 5 19 14 40 18 45 5 6 14 40
21 77 11 62 11 67 -9 96 -29 40 -98 57 -201 48 -89 -8 -126 -24 -241 -105 -47
-33 -129 -90 -182 -126 -53 -36 -125 -91 -160 -123 -99 -89 -151 -131 -214
-174 -58 -40 -139 -105 -199 -160 -29 -27 -55 -36 -55 -20 0 16 22 89 36 119
8 17 14 38 14 46 0 9 5 19 10 22 6 3 10 13 10 21 0 32 108 294 122 294 4 0 8
6 8 13 0 10 103 186 150 257 6 8 13 22 17 30 3 8 16 29 28 45 12 17 30 46 40
65 10 19 40 63 66 97 27 35 49 65 49 69 0 13 76 131 115 179 23 28 60 79 83
115 23 36 55 83 72 106 16 23 30 44 30 48 0 4 19 33 43 64 82 110 186 269 204
312 3 8 14 24 23 35 10 11 50 70 91 130 41 61 76 112 79 115 16 15 79 100 117
158 31 48 43 76 43 104 0 67 -25 98 -80 98 -8 0 -31 -15 -50 -34z"/>
<path d="M5335 8689 c-113 -21 -205 -42 -285 -65 -47 -13 -101 -27 -120 -30
-37 -6 -141 -38 -175 -54 -11 -5 -42 -18 -70 -30 -98 -42 -121 -53 -185 -94
-36 -23 -110 -63 -165 -90 -162 -79 -198 -97 -211 -110 -7 -7 -35 -27 -62 -45
-52 -33 -142 -143 -187 -227 -55 -103 -54 -218 2 -308 39 -60 146 -164 189
-182 88 -37 201 -97 239 -128 56 -45 74 -53 275 -116 36 -11 92 -33 125 -49
163 -78 213 -101 245 -110 19 -6 69 -20 110 -32 41 -12 79 -25 85 -30 5 -5 15
-9 23 -9 16 0 118 -47 152 -70 14 -10 41 -21 60 -25 52 -10 218 -96 329 -169
110 -73 164 -123 218 -204 37 -56 38 -59 38 -148 0 -109 -5 -118 -121 -227
-103 -97 -148 -127 -301 -205 -67 -34 -143 -74 -170 -89 -26 -16 -84 -45 -128
-66 -44 -21 -88 -43 -97 -48 -10 -5 -23 -9 -30 -9 -7 -1 -31 -9 -53 -20 -22
-11 -46 -19 -53 -20 -7 0 -20 -4 -30 -10 -34 -19 -128 -58 -167 -70 -99 -31
-134 -44 -193 -71 -34 -17 -79 -33 -99 -36 -20 -4 -48 -12 -63 -20 -14 -7 -31
-13 -38 -13 -7 0 -23 -5 -35 -12 -28 -16 -144 -47 -177 -47 -27 -1 -88 -21
-200 -66 -36 -14 -83 -30 -105 -35 -70 -15 -168 -39 -260 -63 -49 -14 -144
-32 -210 -41 -66 -9 -169 -26 -230 -36 -145 -25 -304 -48 -390 -55 -38 -4 -97
-11 -130 -16 -216 -31 -523 -39 -765 -19 -80 7 -157 19 -172 26 -15 8 -39 14
-53 14 -28 0 -154 47 -222 83 -113 60 -180 142 -191 233 -5 47 16 121 57 198
35 66 286 316 374 374 38 24 73 54 79 67 19 43 -8 73 -55 61 -90 -22 -400
-306 -560 -512 -10 -13 -25 -51 -34 -85 -19 -74 -12 -104 50 -228 27 -55 60
-102 94 -135 54 -53 157 -113 228 -134 201 -57 195 -56 429 -73 83 -5 175 -16
207 -23 38 -9 70 -11 95 -5 22 5 127 13 234 19 206 10 294 18 560 52 91 11
246 26 345 33 107 7 199 19 228 29 26 9 56 16 65 16 10 0 22 4 28 9 5 6 27 14
49 20 45 11 125 35 170 50 35 11 103 28 165 42 24 5 76 20 115 33 38 13 88 28
110 34 45 11 102 31 127 43 22 11 67 27 223 80 66 22 129 44 140 49 30 14 105
40 150 52 22 6 44 15 50 19 5 5 19 9 31 9 25 0 173 52 219 77 17 9 62 32 100
51 39 19 86 48 105 63 19 15 64 43 100 62 170 90 262 147 340 213 107 90 204
193 230 244 37 72 21 214 -36 321 -72 133 -86 148 -204 208 -36 19 -78 46 -95
61 -16 14 -48 33 -70 42 -99 39 -175 73 -243 109 -40 22 -81 39 -92 39 -10 0
-21 4 -25 9 -3 5 -20 13 -38 17 -17 3 -55 19 -83 34 -29 15 -85 35 -125 44
-41 9 -87 23 -104 31 -16 8 -59 27 -95 43 -128 58 -176 80 -263 121 -48 22
-90 41 -94 41 -12 0 -158 72 -208 103 -120 73 -218 142 -233 164 -10 13 -31
42 -49 64 -17 21 -39 62 -49 91 -15 46 -15 55 -2 82 45 95 63 129 81 149 10
12 29 33 41 47 34 40 133 121 179 146 23 14 94 49 157 80 63 31 122 62 130 68
8 7 44 23 80 35 36 13 74 27 85 32 37 17 147 49 167 49 11 0 27 4 37 10 10 5
43 14 72 19 30 5 105 19 168 30 99 18 122 20 180 9 69 -13 121 -48 121 -83 0
-53 88 -115 134 -94 32 15 35 23 37 118 3 136 -46 199 -166 215 -95 13 -140
14 -190 5z"/>
<path d="M12145 8018 c-72 -74 -99 -110 -129 -173 -21 -44 -42 -88 -47 -97
-15 -29 -11 -88 7 -95 23 -9 53 11 172 116 61 53 125 107 144 120 39 28 75 71
78 91 1 8 2 32 1 53 -1 31 -7 41 -33 57 -18 11 -49 20 -68 20 -30 0 -45 -11
-125 -92z"/>
<path d="M11786 7262 c-22 -15 -59 -56 -83 -92 -23 -36 -47 -70 -53 -77 -5 -7
-10 -15 -10 -18 0 -7 -51 -88 -119 -188 -25 -38 -50 -76 -56 -85 -5 -9 -25
-39 -43 -65 -18 -27 -37 -58 -41 -71 -8 -20 -97 -155 -110 -166 -6 -5 -34 -86
-61 -177 -7 -23 -11 -67 -8 -98 5 -59 23 -86 79 -115 34 -19 231 -16 261 4 13
8 39 17 58 21 37 8 114 47 195 100 54 34 126 75 245 137 41 22 82 46 91 54 8
8 19 14 23 14 4 0 33 19 64 43 131 100 169 127 179 127 5 0 19 8 30 18 21 18
78 58 201 143 77 53 87 73 51 105 -18 16 -23 17 -43 4 -51 -33 -125 -81 -194
-127 -115 -76 -154 -101 -192 -123 -19 -11 -66 -43 -105 -70 -38 -28 -74 -50
-78 -50 -5 0 -27 -13 -50 -29 -62 -42 -136 -84 -187 -106 -25 -10 -64 -27 -87
-37 -23 -10 -49 -18 -58 -18 -8 0 -33 -11 -55 -25 -68 -43 -121 -58 -200 -59
l-75 -1 1 50 c2 107 91 284 236 467 41 51 91 118 110 148 20 30 84 106 142
169 98 105 112 127 107 171 -7 54 -101 66 -165 22z"/>
</g>
</svg>
